<svg width="48" height="48" viewBox="0 0 48 48" fill="none" xmlns="http://www.w3.org/2000/svg">
<path d="M29.5 40.5C29.5 41.6709 28.4713 43.1638 25.8068 44.4531C23.2467 45.6918 19.6045 46.5 15.5 46.5C11.3955 46.5 7.75333 45.6918 5.19319 44.4531C2.52873 43.1638 1.5 41.6709 1.5 40.5C1.5 39.3291 2.52873 37.8362 5.19319 36.5469C7.75333 35.3082 11.3955 34.5 15.5 34.5C19.6045 34.5 23.2467 35.3082 25.8068 36.5469C28.4713 37.8362 29.5 39.3291 29.5 40.5Z" stroke="#152C5B" stroke-width="3"/>
<path d="M27.4825 13.3792C27.5005 13.7219 27.4661 14.09 27.3869 14.4912C26.5738 18.6114 25.0086 25.0525 22.7446 30.4304C21.6096 33.1263 20.3354 35.4662 18.9527 37.1076C17.5561 38.7657 16.2351 39.5 15 39.5C13.7649 39.5 12.4439 38.7657 11.0473 37.1076C9.66464 35.4662 8.39037 33.1263 7.25544 30.4304C4.99139 25.0525 3.42622 18.6114 2.6131 14.4912C2.53393 14.09 2.49954 13.7219 2.51745 13.3792C2.86363 6.75612 8.32477 1.5 15 1.5C21.6752 1.5 27.1364 6.75612 27.4825 13.3792Z" fill="white" stroke="#152C5B" stroke-width="3"/>
<circle cx="15.5" cy="13.5" r="4" stroke="#FF498B" stroke-width="3"/>
</svg>
