<svg width="48" height="48" viewBox="0 0 48 48" fill="none" xmlns="http://www.w3.org/2000/svg">
<circle cx="24" cy="28" r="6.5" stroke="#FF498B" stroke-width="3"/>
<mask id="path-2-inside-1_1_97" fill="white">
<path fill-rule="evenodd" clip-rule="evenodd" d="M17.4881 9C16.6048 9 15.8262 9.57934 15.5724 10.4253L14.5 14H8C3.58172 14 0 17.5817 0 22V37C0 41.4183 3.58172 45 8 45H40C44.4183 45 48 41.4183 48 37V22C48 17.5817 44.4183 14 40 14H33.5L32.4276 10.4253C32.1738 9.57934 31.3952 9 30.5119 9H17.4881Z"/>
</mask>
<path d="M15.5724 10.4253L12.6989 9.56326V9.56326L15.5724 10.4253ZM14.5 14V17H16.7321L17.3735 14.862L14.5 14ZM33.5 14L30.6265 14.862L31.2679 17H33.5V14ZM32.4276 10.4253L29.5541 11.2873L29.5541 11.2873L32.4276 10.4253ZM18.4459 11.2873C18.319 11.7103 17.9297 12 17.4881 12V6C15.28 6 13.3334 7.44834 12.6989 9.56326L18.4459 11.2873ZM17.3735 14.862L18.4459 11.2873L12.6989 9.56326L11.6265 13.138L17.3735 14.862ZM8 17H14.5V11H8V17ZM3 22C3 19.2386 5.23858 17 8 17V11C1.92487 11 -3 15.9249 -3 22H3ZM3 37V22H-3V37H3ZM8 42C5.23858 42 3 39.7614 3 37H-3C-3 43.0751 1.92487 48 8 48V42ZM40 42H8V48H40V42ZM45 37C45 39.7614 42.7614 42 40 42V48C46.0751 48 51 43.0751 51 37H45ZM45 22V37H51V22H45ZM40 17C42.7614 17 45 19.2386 45 22H51C51 15.9249 46.0751 11 40 11V17ZM33.5 17H40V11H33.5V17ZM29.5541 11.2873L30.6265 14.862L36.3735 13.138L35.3011 9.56326L29.5541 11.2873ZM30.5119 12C30.0703 12 29.681 11.7103 29.5541 11.2873L35.3011 9.56327C34.6666 7.44834 32.72 6 30.5119 6V12ZM17.4881 12H30.5119V6H17.4881V12Z" fill="#152C5B" mask="url(#path-2-inside-1_1_97)"/>
<line x1="34.5" y1="20.5" x2="39.5" y2="20.5" stroke="#152C5B" stroke-width="3" stroke-linecap="round"/>
</svg>
