<svg width="48" height="48" viewBox="0 0 48 48" fill="none" xmlns="http://www.w3.org/2000/svg">
<g clip-path="url(#clip0_9_61)">
<rect width="48" height="48" fill="white"/>
<mask id="path-1-inside-1_9_61" fill="white">
<path fill-rule="evenodd" clip-rule="evenodd" d="M17.4771 8C16.5991 8 15.8238 8.57264 15.5656 9.41183L14.1538 14H8C3.58172 14 0 17.5817 0 22V37C0 41.4183 3.58172 45 8 45H40C44.4183 45 48 41.4183 48 37V22C48 17.5817 44.4183 14 40 14H33.8462L32.4344 9.41183C32.1762 8.57265 31.4009 8 30.5229 8H17.4771Z"/>
</mask>
<path d="M15.5656 9.41183L18.4329 10.2941V10.2941L15.5656 9.41183ZM14.1538 14V17H16.3696L17.0212 14.8823L14.1538 14ZM33.8462 14L30.9788 14.8823L31.6304 17H33.8462V14ZM32.4344 9.41183L35.3017 8.52957L35.3017 8.52956L32.4344 9.41183ZM18.4329 10.2941C18.3038 10.7137 17.9162 11 17.4771 11V5C15.2821 5 13.3438 6.43161 12.6983 8.52957L18.4329 10.2941ZM17.0212 14.8823L18.4329 10.2941L12.6983 8.52957L11.2865 13.1177L17.0212 14.8823ZM8 17H14.1538V11H8V17ZM3 22C3 19.2386 5.23858 17 8 17V11C1.92487 11 -3 15.9249 -3 22H3ZM3 37V22H-3V37H3ZM8 42C5.23858 42 3 39.7614 3 37H-3C-3 43.0751 1.92487 48 8 48V42ZM40 42H8V48H40V42ZM45 37C45 39.7614 42.7614 42 40 42V48C46.0751 48 51 43.0751 51 37H45ZM45 22V37H51V22H45ZM40 17C42.7614 17 45 19.2386 45 22H51C51 15.9249 46.0751 11 40 11V17ZM33.8462 17H40V11H33.8462V17ZM29.5671 10.2941L30.9788 14.8823L36.7135 13.1177L35.3017 8.52957L29.5671 10.2941ZM30.5229 11C30.0838 11 29.6962 10.7137 29.5671 10.2941L35.3017 8.52956C34.6562 6.43161 32.7179 5 30.5229 5V11ZM17.4771 11H30.5229V5H17.4771V11Z" fill="#152C5B" mask="url(#path-1-inside-1_9_61)"/>
<circle cx="24" cy="29" r="6.5" stroke="#FF4988" stroke-width="3"/>
<line x1="34.5" y1="21.5" x2="40.5" y2="21.5" stroke="#152C5B" stroke-width="3" stroke-linecap="round"/>
</g>
<defs>
<clipPath id="clip0_9_61">
<rect width="48" height="48" fill="white"/>
</clipPath>
</defs>
</svg>
