<svg width="48" height="48" viewBox="0 0 48 48" fill="none" xmlns="http://www.w3.org/2000/svg">
<g clip-path="url(#clip0_9_17)">
<rect width="48" height="48" fill="white"/>
<path d="M27.5 41C27.5 42.031 26.5858 43.3993 24.1009 44.5989C21.7214 45.7476 18.3288 46.5 14.5 46.5C10.6712 46.5 7.27857 45.7476 4.89908 44.5989C2.4142 43.3993 1.5 42.031 1.5 41C1.5 39.969 2.4142 38.6007 4.89908 37.4011C7.27857 36.2524 10.6712 35.5 14.5 35.5C18.3288 35.5 21.7214 36.2524 24.1009 37.4011C26.5858 38.6007 27.5 39.969 27.5 41Z" stroke="#152C5B" stroke-width="3"/>
<path d="M25.5 12.1481C25.5 15.2664 24.1571 22.2991 21.9252 28.5884C20.8137 31.7206 19.5184 34.5602 18.1285 36.587C16.6696 38.7145 15.4181 39.5 14.5 39.5C13.5819 39.5 12.3304 38.7145 10.8715 36.587C9.48155 34.5602 8.18634 31.7206 7.07479 28.5884C4.84291 22.2991 3.5 15.2664 3.5 12.1481C3.5 6.30742 8.38421 1.5 14.5 1.5C20.6158 1.5 25.5 6.30742 25.5 12.1481Z" fill="white" stroke="#152C5B" stroke-width="3"/>
<circle cx="14.5" cy="12.5" r="4" fill="white" stroke="#FF4988" stroke-width="3"/>
</g>
<defs>
<clipPath id="clip0_9_17">
<rect width="48" height="48" fill="white"/>
</clipPath>
</defs>
</svg>
