<svg width="32" height="31" viewBox="0 0 32 31" fill="none" xmlns="http://www.w3.org/2000/svg">
<path d="M15.0446 0.841812C15.335 -0.0978656 16.665 -0.0978658 16.9554 0.841812L19.8544 10.2231C19.9839 10.6421 20.3713 10.9278 20.8098 10.9278H30.2937C31.2502 10.9278 31.6609 12.1418 30.9008 12.7225L23.1432 18.6487C22.8102 18.9031 22.6711 19.3382 22.7949 19.7386L25.7374 29.2608C26.0248 30.191 24.9486 30.9418 24.1749 30.3507L16.6071 24.5694C16.2487 24.2956 15.7513 24.2956 15.3929 24.5694L7.8251 30.3507C7.05142 30.9418 5.97517 30.191 6.26262 29.2608L9.20514 19.7386C9.32888 19.3382 9.18981 18.9031 8.85678 18.6487L1.09923 12.7225C0.339118 12.1418 0.749762 10.9278 1.7063 10.9278H11.1902C11.6287 10.9278 12.0161 10.6421 12.1456 10.2231L15.0446 0.841812Z" fill="#FFCC47"/>
</svg>
